<svg xmlns="http://www.w3.org/2000/svg" xmlns:xlink="http://www.w3.org/1999/xlink" viewBox="0 0 800 300" version="1.1" baseProfile="full" viewport="0 0 1600px 600px">
    <defs>
        <radialGradient id="131690403923168" cx="401" cy="151" r="401" fx="401" fy="151" gradientUnits="userSpaceOnUse">
            <stop offset="0%" style="stop-color:#2e3d38;stop-opacity:1.000000"/>
            <stop offset="100%" style="stop-color:#000000;stop-opacity:1.000000"/>
        </radialGradient>
    </defs>
    <g transform="scale(1,-1) translate(0,-300)">
        <rect width="800" height="300" style="fill:rgb(255,254,254)"/>
        <path d="M 1.000000 1.000000 L 801.000000 1.000000 L 801.000000 301.000000 L 1.000000 301.000000 Z" transform="scale(1.000000,1.000000) translate(-1.000000,-1.000000)" fill="url(#131690403923168)" opacity="1.000000"/>
        <path d="M 32.405273 92.458984 L 50.959961 92.458984 Q 91.965820 92.458984 97.346680 80.955078 Q 98.367188 80.955078 99.202148 74.646484 Q 98.459961 69.265625 96.975586 64.255859 L 66.916992 64.255859 L 66.916992 64.626953 Q 68.401367 69.080078 69.143555 74.275391 Q 69.143555 86.243164 52.073242 89.490234 Q 40.476562 91.716797 32.405273 91.716797 Z M 30.178711 87.634766 Q 45.208008 87.634766 58.010742 82.439453 Q 32.776367 27.332031 32.776367 24.177734 Q 32.312500 20.374023 32.034180 19.724609 Q 32.034180 10.818359 40.940430 7.107422 Q 41.311523 7.107422 41.311523 7.478516 Q 50.867188 29.001953 51.702148 29.744141 L 81.389648 29.744141 L 68.772461 1.541016 L 50.217773 1.541016 Q 9.211914 1.541016 3.831055 13.044922 Q 2.810547 13.044922 1.975586 19.353516 Q 1.975586 27.053711 19.045898 62.400391 Z M 121.931641 92.458984 L 140.486328 92.458984 Q 181.492188 92.458984 186.873047 80.955078 Q 187.893555 80.955078 188.728516 74.646484 Q 188.728516 66.946289 171.658203 31.599609 L 160.525391 6.365234 Q 145.496094 6.365234 132.693359 11.560547 Q 154.309570 58.967773 157.556641 67.966797 L 158.669922 74.275391 Q 158.669922 86.243164 141.599609 89.490234 Q 130.002930 91.716797 121.931641 91.716797 Z M 119.705078 87.634766 Q 134.734375 87.634766 147.537109 82.439453 Q 122.302734 27.332031 122.302734 24.177734 Q 121.838867 20.374023 121.560547 19.724609 Q 121.560547 7.756836 138.630859 4.509766 Q 150.227539 2.283203 158.298828 2.283203 L 158.298828 1.541016 L 139.744141 1.541016 Q 98.738281 1.541016 93.357422 13.044922 Q 92.336914 13.044922 91.501953 19.353516 Q 91.501953 27.053711 108.572266 62.400391 Z M 210.994141 92.458984 L 229.548828 92.458984 Q 270.554688 92.458984 275.935547 80.955078 Q 276.956055 80.955078 277.791016 74.646484 Q 277.791016 66.575195 259.236328 28.630859 Q 259.236328 27.888672 247.361328 1.541016 L 217.302734 1.541016 L 217.302734 1.912109 Q 243.464844 58.967773 246.619141 67.966797 L 247.732422 74.275391 Q 247.732422 86.243164 230.662109 89.490234 Q 219.065430 91.716797 210.994141 91.716797 Z M 258.123047 92.458984 L 276.677734 92.458984 Q 317.683594 92.458984 323.064453 80.955078 Q 324.084961 80.955078 324.919922 74.646484 Q 324.919922 66.575195 306.365234 28.630859 Q 306.365234 27.888672 294.490234 1.541016 L 264.431641 1.541016 L 264.431641 1.912109 Q 290.593750 58.967773 293.748047 67.966797 L 294.861328 74.275391 Q 294.861328 86.243164 277.791016 89.490234 Q 266.194336 91.716797 258.123047 91.716797 Z M 208.767578 87.634766 Q 223.796875 87.634766 236.599609 82.439453 L 200.232422 1.541016 L 170.173828 1.541016 L 170.173828 1.912109 Q 200.974609 69.729492 208.767578 87.634766 Z M 347.185547 92.458984 L 365.740234 92.458984 Q 406.746094 92.458984 412.126953 80.955078 Q 413.147461 80.955078 413.982422 74.646484 Q 413.982422 66.760742 402.107422 43.474609 Q 395.798828 37.166016 380.583984 37.166016 L 352.751953 37.166016 Q 351.638672 36.052734 336.423828 1.541016 L 306.365234 1.541016 L 306.365234 1.912109 Q 337.166016 69.729492 344.958984 87.634766 Q 359.988281 87.634766 372.791016 82.439453 L 361.287109 56.833984 L 370.935547 56.833984 Q 379.192383 56.833984 380.955078 63.142578 Q 382.810547 66.667969 383.923828 74.275391 Q 383.923828 86.243164 366.853516 89.490234 Q 355.256836 91.716797 347.185547 91.716797 Z M 436.248047 92.458984 L 454.802734 92.458984 Q 495.808594 92.458984 501.189453 80.955078 Q 502.209961 80.955078 503.044922 74.646484 Q 503.044922 66.575195 484.490234 28.630859 Q 484.490234 27.888672 472.615234 1.541016 L 442.556641 1.541016 L 442.556641 1.912109 L 458.513672 37.166016 L 441.814453 37.166016 Q 440.701172 36.052734 425.486328 1.541016 L 395.427734 1.541016 L 395.427734 1.912109 Q 426.228516 69.729492 434.021484 87.634766 Q 449.050781 87.634766 461.853516 82.439453 L 450.349609 56.833984 L 467.048828 56.833984 Q 469.646484 60.173828 472.244141 69.822266 Q 472.708008 73.625977 472.986328 74.275391 Q 472.986328 86.243164 455.916016 89.490234 Q 444.319336 91.716797 436.248047 91.716797 Z M 525.310547 92.458984 L 543.865234 92.458984 Q 584.871094 92.458984 590.251953 80.955078 Q 591.272461 80.955078 592.107422 74.646484 Q 592.107422 66.575195 573.552734 28.630859 Q 573.552734 27.888672 561.677734 1.541016 L 531.619141 1.541016 L 531.619141 1.912109 Q 557.781250 58.967773 560.935547 67.966797 L 562.048828 74.275391 Q 562.048828 86.243164 544.978516 89.490234 Q 533.381836 91.716797 525.310547 91.716797 Z M 523.083984 87.634766 Q 538.113281 87.634766 550.916016 82.439453 L 514.548828 1.541016 L 484.490234 1.541016 L 484.490234 1.912109 Q 515.291016 69.729492 523.083984 87.634766 Z M 661.965820 92.458984 L 692.024414 92.458984 L 692.024414 92.087891 Q 657.883789 16.848633 653.430664 6.365234 Q 638.401367 6.365234 625.598633 11.560547 L 637.102539 37.166016 L 627.825195 37.166016 Q 595.168945 37.166016 595.168945 44.958984 L 595.168945 46.814453 Q 595.168945 49.783203 609.270508 79.841797 Q 610.940430 84.666016 619.661133 88.376953 Q 634.041016 92.087891 644.895508 92.087891 Q 631.536133 63.699219 631.536133 60.544922 Q 631.536133 56.833984 638.215820 56.833984 L 645.637695 56.833984 Q 646.750977 57.947266 661.965820 92.458984 Z M 586.633789 29.744141 L 616.692383 29.744141 L 616.692383 29.373047 Q 615.208008 24.919922 614.465820 19.724609 Q 614.465820 7.756836 631.536133 4.509766 Q 643.132812 2.283203 651.204102 2.283203 L 651.204102 1.541016 L 632.649414 1.541016 Q 591.643555 1.541016 586.262695 13.044922 Q 585.242188 13.044922 584.407227 19.353516 Q 585.149414 24.734375 586.633789 29.744141 Z" transform="scale(1.000000,1.000000) translate(53.000000,103.000000)" fill="#21fffa" opacity="1.000000"/>
    </g>
</svg>